<svg version="1.2" xmlns="http://www.w3.org/2000/svg" viewBox="0 0 512 512" width="512" height="512">
	<title>android-chrome-512x512</title>
	<style>
		.s0 { fill: #00c400 } 
		.s1 { fill: #ffffff } 
	</style>
	<path id="Shape 1" fill-rule="evenodd" class="s0" d="m152 74h213c41.42 0 75 33.58 75 75v214c0 41.42-33.58 75-75 75h-213c-41.42 0-75-33.58-75-75v-214c0-41.42 33.58-75 75-75z"/>
	<path id="Shape 2" fill-rule="evenodd" class="s1" d="m176 139h36c2.76 0 5 2.24 5 5v222c0 2.76-2.24 5-5 5h-36c-2.76 0-5-2.24-5-5v-222c0-2.76 2.24-5 5-5z"/>
	<path id="Shape 3" fill-rule="evenodd" class="s1" d="m210.86 246.63l99.77-126.79c1.7-2.17 4.85-2.54 7.02-0.83l24.91 19.6c2.17 1.71 2.55 4.85 0.84 7.02l-99.77 126.79c-1.71 2.17-4.85 2.54-7.02 0.83l-24.91-19.6c-2.17-1.71-2.55-4.85-0.84-7.02z"/>
	<path id="Shape 4" fill-rule="evenodd" class="s1" d="m256.71 219.96l94.73 144.76c1.51 2.31 0.87 5.41-1.44 6.92l-30.13 19.72c-2.31 1.51-5.41 0.86-6.92-1.45l-94.73-144.76c-1.51-2.31-0.86-5.41 1.45-6.92l30.12-19.71c2.31-1.52 5.41-0.87 6.92 1.44z"/>
	<path id="Shape 5" fill-rule="evenodd" class="s1" d="m236.32 224.76l21.26 18.22c2.1 1.8 2.34 4.95 0.54 7.05l-42.95 50.11c-1.8 2.1-4.95 2.34-7.05 0.54l-21.26-18.22c-2.1-1.8-2.34-4.95-0.54-7.05l42.95-50.11c1.8-2.1 4.95-2.34 7.05-0.54z"/>
	<path id="Shape 6" fill-rule="evenodd" class="s0" d="m264 362h104c2.76 0 5 2.24 5 5v29c0 2.76-2.24 5-5 5h-104c-2.76 0-5-2.24-5-5v-29c0-2.76 2.24-5 5-5z"/>
	<path id="Shape 8" fill-rule="evenodd" class="s1" d="m301 357h45c2.76 0 5 2.24 5 5 0 2.76-2.24 5-5 5h-45c-2.76 0-5-2.24-5-5 0-2.76 2.24-5 5-5z"/>
	<path id="Shape 7" fill-rule="evenodd" class="s0" d="m298 111h43c2.76 0 5 2.24 5 5v26c0 2.76-2.24 5-5 5h-43c-2.76 0-5-2.24-5-5v-26c0-2.76 2.24-5 5-5z"/>
	<path id="Shape 10" fill-rule="evenodd" class="s1" d="m298.5 139h39.5c2.76 0 5 2.24 5 5v1c0 2.76-2.24 5-5 5h-40c-2.76 0-5-2.24-5-5v-0.5c0-3.04 2.46-5.5 5.5-5.5z"/>
	<path id="Shape 9" fill-rule="evenodd" class="s0" d="m360.8 364.21l-2.51 1.63c-2.32 1.51-5.42 0.85-6.92-1.47l-10.35-15.93c-1.5-2.32-0.85-5.42 1.47-6.92l2.52-1.63c2.31-1.51 5.41-0.85 6.91 1.47l10.35 15.93c1.51 2.32 0.85 5.41-1.47 6.92z"/>
</svg>